<svg id="Capa_1" enable-background="new 0 0 512 512" height="512" viewBox="0 0 512 512" width="512" xmlns="http://www.w3.org/2000/svg"><g><path d="m509.229 395.681c-.347-2.173-.824-4.402-1.46-6.814l-30.217-114.437c-2.55-9.655-7.331-18.766-13.827-26.35-3.212-3.749-5.864-7.935-7.879-12.444l-48.27-107.924c-2.84-6.347-7.965-11.251-14.322-13.827v-89.631c0-9.265-7.538-16.803-16.803-16.803h-44.669c-4.225 0-7.65 3.424-7.65 7.65s3.424 7.65 7.65 7.65h44.669c.83 0 1.504.674 1.504 1.504v295.176c-.133.004-.263.02-.397.02h-.042c-4.819-.044-9.287-2.245-12.26-6.037-7.806-9.959-19.379-24.758-19.382-24.761-8.068-10.393-20.666-16.614-33.622-16.641-.176-.003-.352-.004-.528-.004-9.626 0-19.076 3.252-26.666 9.188-8.054 6.299-9.482 17.977-3.184 26.032l48.472 61.979c1.614 2.064 2.47 4.672 2.478 7.543.06 22.635 15.536 41.863 37.637 46.759l7.495 1.66v14.983c0 .83-.674 1.504-1.504 1.504h-240.883c-.83 0-1.504-.674-1.504-1.504v-14.988l7.475-1.656c19.574-4.337 33.943-19.918 37.016-39.148h119.908c4.225 0 7.65-3.424 7.65-7.65s-3.424-7.65-7.65-7.65h-116.694l48.358-61.834c6.298-8.055 4.87-19.733-3.185-26.032-7.591-5.935-17.042-9.188-26.594-9.188-.173 0-.347.001-.521.003-13.033.028-25.631 6.249-33.683 16.621 0 0-11.586 14.814-19.398 24.782-2.973 3.792-7.441 5.993-12.19 6.037h-.113c-.128 0-.251-.016-.378-.019v-295.176c0-.83.674-1.504 1.504-1.504h157.103c4.225 0 7.65-3.424 7.65-7.65s-3.424-7.65-7.65-7.65h-157.104c-9.265 0-16.803 7.538-16.803 16.803v89.623c-6.366 2.574-11.498 7.481-14.341 13.835l-48.27 107.925c-2.015 4.507-4.666 8.693-7.88 12.444-6.495 7.583-11.276 16.695-13.825 26.348l-18.187 68.872c-1.079 4.085 1.358 8.271 5.442 9.349 3.975 1.085 8.285-1.325 9.349-5.442l18.187-68.872c1.963-7.438 5.648-14.459 10.652-20.3 4.17-4.867 7.611-10.301 10.227-16.151l48.27-107.924c.112-.251.246-.487.375-.726v68.431l-12.747 40.73c-1.164 3.722-1.751 7.587-1.745 11.484l.082 50.83c.027 16.564 13.524 30.041 30.089 30.041h.183c9.496-.088 18.301-4.424 24.159-11.898 7.818-9.973 19.41-24.796 19.426-24.816 5.123-6.598 13.418-10.707 21.727-10.726 6.409-.07 12.51 1.975 17.58 5.938 1.409 1.102 1.659 3.146.557 4.555l-48.47 61.979c-3.676 4.699-5.71 10.711-5.727 16.928-.041 15.424-10.587 28.526-25.647 31.862l-21.062 4.665c-5.642 1.249-9.582 6.158-9.582 11.937v62.658c0 .783-.636 1.419-1.403 1.419l-89.465-.181c-.783 0-1.419-.636-1.419-1.418v-56.938c.15-12.748.857-25.458 3.724-37.939l3.151-11.932c1.078-4.085-1.359-8.271-5.443-9.35-4.087-1.077-8.271 1.359-9.35 5.443l-3.15 11.933c-3.255 13.758-4.07 27.776-4.233 41.844v56.938c0 9.218 7.5 16.718 16.703 16.718l89.465.181c9.218 0 16.719-7.5 16.719-16.719v-36.691c3.083 3.554 7.62 5.814 12.683 5.814h240.88c5.053 0 9.581-2.252 12.664-5.794v36.67c0 9.218 7.5 16.719 16.735 16.719l89.433-.181c9.218 0 16.719-7.499 16.719-16.718v-56.938c-.001-11.691-.933-23.477-2.772-35.031zm-12.528 91.97c0 .782-.636 1.418-1.435 1.418l-89.433.181c-.783 0-1.419-.636-1.419-1.419v-62.658c0-5.779-3.94-10.688-9.582-11.937l-21.063-4.665c-15.059-3.337-25.605-16.439-25.646-31.863-.017-6.215-2.051-12.227-5.726-16.927l-48.471-61.979c-1.103-1.409-.853-3.453.557-4.555 5.07-3.963 11.103-6.022 17.659-5.937 8.23.018 16.525 4.128 21.664 10.746 0 0 11.592 14.822 19.409 24.796 5.859 7.473 14.664 11.81 24.231 11.898h.113c16.565 0 30.063-13.477 30.088-30.041l.083-50.83c.006-3.9-.582-7.764-1.746-11.485l-12.727-40.672v-68.451c.121.228.249.452.356.69l48.27 107.923c2.617 5.851 6.057 11.285 10.226 16.151 5.005 5.843 8.689 12.863 10.653 20.302l30.217 114.437c.505 1.913.879 3.652 1.144 5.315 1.712 10.759 2.581 21.737 2.581 32.625v56.937z"/><path d="m181.484 121.146c15.253 0 27.662-12.409 27.662-27.662 0-15.252-12.409-27.661-27.662-27.661s-27.662 12.409-27.662 27.661c0 15.253 12.409 27.662 27.662 27.662zm0-40.024c6.817 0 12.363 5.546 12.363 12.362 0 6.817-5.546 12.363-12.363 12.363s-12.363-5.546-12.363-12.363c0-6.816 5.546-12.362 12.363-12.362z"/><path d="m329.742 121.146c15.253 0 27.662-12.409 27.662-27.662 0-15.252-12.409-27.661-27.662-27.661s-27.662 12.409-27.662 27.661c0 15.253 12.408 27.662 27.662 27.662zm0-40.024c6.817 0 12.363 5.546 12.363 12.362 0 6.817-5.546 12.363-12.363 12.363s-12.363-5.546-12.363-12.363c0-6.816 5.546-12.362 12.363-12.362z"/><path d="m181.484 189.146c15.253 0 27.662-12.409 27.662-27.661 0-15.253-12.409-27.662-27.662-27.662s-27.662 12.409-27.662 27.662c0 15.252 12.409 27.661 27.662 27.661zm0-40.024c6.817 0 12.363 5.546 12.363 12.363 0 6.816-5.546 12.362-12.363 12.362s-12.363-5.546-12.363-12.362c0-6.817 5.546-12.363 12.363-12.363z"/><path d="m227.327 228.465c0 15.253 12.409 27.662 27.662 27.662s27.662-12.409 27.662-27.662-12.409-27.662-27.662-27.662-27.662 12.408-27.662 27.662zm40.025 0c0 6.817-5.546 12.363-12.363 12.363s-12.363-5.546-12.363-12.363 5.546-12.363 12.363-12.363 12.363 5.546 12.363 12.363z"/><path d="m242.671 120.251h24.636c5.82 0 11.032-3.009 13.942-8.049 2.91-5.041 2.91-11.059 0-16.099l-12.317-21.336c-2.911-5.04-8.124-8.049-13.944-8.048-5.82 0-11.031 3.009-13.941 8.049l-12.317 21.334c-2.91 5.04-2.91 11.058 0 16.099 2.909 5.04 8.122 8.05 13.941 8.05zm-.692-16.499 12.318-21.335c.069-.12.231-.399.692-.399.462 0 .625.281.693.399l12.318 21.335c.069.12.231.399 0 .8-.231.399-.554.399-.692.399h-24.636c-.138 0-.461 0-.692-.399-.232-.401-.07-.68-.001-.8z"/><path d="m317.424 188.251h24.636c5.82 0 11.032-3.009 13.942-8.049 2.91-5.041 2.91-11.059 0-16.099l-12.317-21.336c-2.911-5.04-8.124-8.049-13.944-8.048-5.82 0-11.031 3.009-13.941 8.049l-12.318 21.335c-2.91 5.04-2.91 11.058 0 16.099 2.909 5.039 8.122 8.049 13.942 8.049zm-.693-16.499 12.318-21.335c.069-.12.231-.399.692-.399.462 0 .625.281.693.399l12.317 21.335c.069.12.231.399 0 .8-.231.399-.554.399-.692.399h-24.636c-.138 0-.461 0-.692-.399-.231-.401-.068-.68 0-.8z"/><path d="m155.225 248.202c2.91 5.04 8.122 8.049 13.942 8.049h24.636c5.82 0 11.031-3.009 13.942-8.049 2.91-5.04 2.91-11.059 0-16.1l-12.318-21.335c-2.909-5.04-8.121-8.049-13.941-8.049-.001 0 0 0-.001 0-5.819 0-11.032 3.009-13.943 8.048v.001l-12.317 21.335c-2.911 5.041-2.911 11.06 0 16.1zm13.249-8.45 12.317-21.334c.069-.12.231-.4.693-.4.461 0 .624.28.692.399l12.318 21.335c.069.12.231.4 0 .801-.231.399-.554.399-.692.399h-24.636c-.138 0-.461 0-.692-.399-.231-.401-.069-.681 0-.801z"/><path d="m231.338 408.552c-4.225 0-7.65 3.424-7.65 7.65s3.424 7.65 7.65 7.65h49.342c4.225 0 7.65-3.424 7.65-7.65s-3.424-7.65-7.65-7.65z"/><path d="m310.573 207.898c-7.03 0-12.749 5.719-12.749 12.749v22.855c0 7.03 5.719 12.749 12.749 12.749h38.338c7.03 0 12.749-5.719 12.749-12.749v-22.855c0-7.03-5.719-12.749-12.749-12.749zm35.788 33.054h-33.238v-17.756h33.238z"/><path d="m286.918 172.911v-22.854c0-7.03-5.719-12.749-12.749-12.749h-38.338c-7.03 0-12.749 5.719-12.749 12.749v22.854c0 7.03 5.719 12.749 12.749 12.749h38.338c7.029.001 12.749-5.718 12.749-12.749zm-15.3-2.549h-33.238v-17.755h33.238z"/></g></svg>