<svg height="512pt" viewBox="0 0 512 512.04609" width="512pt" xmlns="http://www.w3.org/2000/svg"><path d="m497.78125 39.476562c-23.304688-11.871093-93.464844-39.476562-241.757812-39.476562-142.457032 0-216.226563 27.785156-241.332032 39.730469-9.023437 4.425781-14.722656 13.621093-14.6679685 23.671875v217.601562c-.0429687 8.726563 4.2460935 16.902344 11.4414065 21.835938 6.867187 4.667968 15.601562 5.625 23.316406 2.558594 26.742188-10.5625 83.308594-27.441407 178.574219-31.476563v18.769531c-38.792969 4.925782-55.0625 15.363282-55.933594 15.96875-3.757813 2.660156-4.726563 7.816406-2.195313 11.660156s7.65625 4.984376 11.582032 2.582032c.203125-.128906 16.578125-10.300782 56.71875-14.191406 4.515625-.425782 9.21875-.75 14.011718-.992188l2.929688-.132812c2.300781-.097657 4.667969-.105469 7.003906-.15625v42.4375h-51.445312c-7.300782-5.511719-16.191406-8.507813-25.335938-8.535157-14.183594-.046875-27.453125 6.976563-35.390625 18.734375-7.933593 11.753906-9.484375 26.6875-4.136719 39.824219-15.359374 51.121094-16.894531 82.898437-4.574218 99.582031 6.375 8.402344 16.503906 13.09375 27.035156 12.527344 25.511719 0 32.679688-19.625 38.398438-35.457031 2.503906-9.519531 7.347656-18.265625 14.089843-25.4375 2.34375.738281 4.785157 1.128906 7.242188 1.160156 7.207031-.019531 14.066406-3.089844 18.878906-8.457031l47.519531-.074219c6.453125 7.464844 16.734375 10.363281 26.136719 7.371094 6.746094 7.171875 11.585937 15.917969 14.089844 25.4375 5.761719 15.832031 12.929687 35.457031 38.441406 35.457031 10.53125.566406 20.660156-4.125 27.035156-12.527344 12.320313-16.683594 10.8125-48.460937-4.574219-99.582031 7.238282-17.695313 1.765626-38.046875-13.375-49.722656-15.136718-11.675781-36.210937-11.796875-51.488281-.300781h-51.460937v-42.460938c2.34375.050781 4.699218.058594 7.011718.152344l2.886719.136718c4.785157.238282 9.480469.5625 13.984375.988282 39.9375 3.859375 56.378906 13.9375 56.773438 14.183594 3.917968 2.34375 8.988281 1.1875 11.503906-2.625 2.511719-3.8125 1.578125-8.929688-2.117188-11.609376-.855468-.578124-17.144531-11.042968-55.9375-15.964843v-18.746094c97.945313 3.820313 152.832032 20.28125 178.140626 30.597656 7.808593 3.195313 16.695312 2.285157 23.691406-2.429687 7.253906-4.902344 11.582031-13.105469 11.527344-21.863282v-217.285156c.066406-9.882812-5.445313-18.960937-14.242188-23.464844zm-327.089844 318.921876c6.140625.027343 12.0625 2.277343 16.671875 6.332031l.070313.085937c2.699218 2.355469 4.886718 5.234375 6.433594 8.464844 0 .101562.109374.195312.160156.300781.605468 1.375 1.085937 2.804688 1.445312 4.265625.066406.28125.1875.527344.246094.851563.378906 1.742187.570312 3.519531.570312 5.300781.082032 7.609375-3.261718 14.851562-9.109374 19.722656-5.84375 4.875-13.566407 6.863282-21.039063 5.417969-.441406-.078125-.851563-.179687-1.3125-.28125-1.089844-.261719-2.164063-.597656-3.207031-1-.386719-.144531-.785156-.257813-1.164063-.425781-1.183593-.53125-2.324219-1.148438-3.410156-1.851563-.660156-.417969-1.273437-.855469-1.886719-1.367187-.410156-.316406-.855468-.648438-1.203125-.988282-2.515625-2.214843-4.582031-4.890624-6.085937-7.886718-.03125-.054688-.070313-.109375-.109375-.160156-1.738281-3.472657-2.652344-7.296876-2.671875-11.179688 0-14.136719 11.460937-25.601562 25.601562-25.601562zm5.339844 112.300781c-5.964844 16.367187-9.410156 24.234375-22.40625 24.234375-5.109375.582031-10.152344-1.542969-13.304688-5.605469-5.503906-7.449219-8.917968-26.078125 3.59375-72.183594.441407.367188.953126.621094 1.414063.972657.992187.734374 1.988281 1.425781 3.039063 2.074218 1.257812.777344 2.554687 1.480469 3.890624 2.113282.964844.472656 1.902344.941406 2.902344 1.332031 1.613282.617187 3.269532 1.128906 4.949219 1.535156.851563.222656 1.707031.511719 2.558594.683594 5.375 1.097656 10.917969 1.097656 16.289062 0l.445313-.066407c2.53125-.542968 5.007812-1.3125 7.398437-2.304687.238281-.09375.476563-.171875.707031-.273437.230469-.101563.34375-.121094.511719-.195313-.171875 1.207031-.261719 2.429687-.261719 3.652344.015626 1.515625.167969 3.03125.460938 4.519531.09375.566406.238281 1.09375.375 1.640625.21875.867187.488281 1.722656.800781 2.558594.230469.632812.460938 1.253906.734375 1.859375.273438.609375.726563 1.382812 1.117188 2.058594.300781.519531.519531 1.082031.855468 1.578124-7.414062 8.683594-12.890624 18.847657-16.070312 29.816407zm37.324219-35.5c-1.867188-.035157-3.671875-.699219-5.117188-1.886719-.472656-.355469-.910156-.753906-1.308593-1.191406-.460938-.539063-.859376-1.128906-1.183594-1.757813-.128906-.265625-.230469-.53125-.332032-.804687-.367187-.921875-.566406-1.902344-.589843-2.890625 0-4.714844 3.820312-8.535157 8.53125-8.535157 4.714843 0 8.535156 3.820313 8.535156 8.535157-.03125.933593-.21875 1.855469-.554687 2.730469-.140626.398437-.308594.785156-.503907 1.160156-1.429687 2.820312-4.3125 4.609375-7.476562 4.640625zm25.601562-8.53125c0-14.140625-11.460937-25.601563-25.601562-25.601563-1.230469 0-2.457031.089844-3.675781.265625.074218-.171875.117187-.351562.195312-.511719.078125-.164062.179688-.46875.273438-.710937.992187-2.390625 1.761718-4.867187 2.304687-7.398437 0-.144532.042969-.296876.066406-.441407 1.734375-8.53125.761719-17.386719-2.78125-25.335937h12.152344v8.53125c0 14.140625 11.460937 25.601562 25.597656 25.601562h17.070313c14.136718 0 25.597656-11.460937 25.597656-25.601562v-8.53125h12.152344c-3.542969 7.949218-4.515625 16.804687-2.78125 25.335937 0 .144531.042968.296875.066406.441407.542969 2.53125 1.3125 5.007812 2.304688 7.398437.09375.242187.171874.480469.273437.710937.101563.230469.121094.339844.195313.511719-1.21875-.175781-2.445313-.265625-3.675782-.265625-14.140625 0-25.601562 11.460938-25.601562 25.601563zm52.257813 3.890625c-.195313-.375-.363282-.761719-.503906-1.160156-.335938-.875-.523438-1.796876-.554688-2.730469 0-4.714844 3.820312-8.535157 8.535156-8.535157 4.710938 0 8.53125 3.820313 8.53125 8.535157-.023437.988281-.222656 1.96875-.589844 2.890625-.101562.273437-.203124.539062-.332031.804687-.589843 1.15625-1.4375 2.164063-2.480469 2.941407-1.449218 1.191406-3.257812 1.859374-5.128906 1.894531-3.164062-.03125-6.046875-1.820313-7.476562-4.640625zm80.511718 58.769531c-3.152343 4.0625-8.195312 6.1875-13.304687 5.605469-12.996094 0-16.441406-7.867188-22.40625-24.234375-3.183594-10.957031-8.660156-21.105469-16.070313-29.78125.335938-.496094.554688-1.058594.855469-1.578125.390625-.675782.785157-1.347656 1.117188-2.058594.332031-.707031.503906-1.238281.734375-1.867188.3125-.839843.582031-1.695312.800781-2.5625.136719-.535156.28125-1.074218.375-1.628906.292969-1.5.449219-3.027344.460937-4.554687 0-1.230469-.089843-2.460938-.261718-3.679688.167968.078125.347656.121094.511718.195313.160157.078125.46875.179687.707032.273437 2.390625.992188 4.867187 1.765625 7.398437 2.304688l.445313.070312c5.371094 1.097657 10.914062 1.097657 16.289062 0 .851563-.171875 1.707032-.460937 2.558594-.683593 1.679688-.40625 3.335938-.917969 4.949219-1.535157 1-.394531 1.9375-.855469 2.902343-1.332031 1.335938-.632812 2.632813-1.339844 3.890626-2.117188 1.050781-.648437 2.046874-1.339843 3.039062-2.074218.460938-.347656.972656-.605469 1.414062-.972656 12.476563 46.132812 9.0625 64.761718 3.59375 72.210937zm-4.769531-105.328125c-.023437 3.882812-.941406 7.707031-2.679687 11.179688 0 .058593-.085938.101562-.109375.160156-1.507813 2.996094-3.570313 5.671875-6.085938 7.886718-.390625.339844-.792969.671876-1.203125.988282-.613281.476562-1.238281.949218-1.886718 1.367187-1.085938.703125-2.230469 1.320313-3.414063 1.851563-.375.167968-.773437.28125-1.160156.425781-1.042969.40625-2.117188.742187-3.207031 1-.433594.101563-.855469.203125-1.3125.28125-7.472657 1.441406-15.195313-.546875-21.035157-5.421875-5.84375-4.871094-9.1875-12.113281-9.105469-19.71875 0-1.789062.191407-3.570312.570313-5.316406.058594-.28125.1875-.539063.257813-.851563.347656-1.464843.824218-2.890625 1.433593-4.269531.050781-.109375.117188-.203125.167969-.316406 1.542969-3.226563 3.730469-6.105469 6.425781-8.453125l.070313-.085938c7.535156-6.617187 18.253906-8.195312 27.378906-4.03125 9.121094 4.164063 14.953125 13.296875 14.894531 23.324219zm-93.867187-8.535156c0 4.714844-3.820313 8.535156-8.53125 8.535156h-17.070313c-4.710937 0-8.53125-3.820312-8.53125-8.535156v-8.53125h34.132813zm8.535156-102.074219v17.597656h-.660156c-2.992188-.207031-6.160156-.351562-9.386719-.480469-.910156 0-1.800781-.101562-2.730469-.128906-4.101562-.164062-8.375-.246094-12.824218-.246094-4.449219 0-8.714844.070313-12.800782.214844-.929687 0-1.816406.09375-2.730468.128906-3.207032.125-6.375.269532-9.386719.476563l-.683594.035156v-17.5625c3.210937-.085937 6.511719-.144531 9.824219-.195312 2.984375-.042969 6.011718-.074219 9.078125-.09375h13.234375c3.304687 0 6.570312 0 9.796875.09375 3.226562.09375 6.246093.09375 9.269531.160156zm213.332031 6.828125c.066407 3.066406-1.421875 5.957031-3.960937 7.679688-2.277344 1.542968-5.175782 1.84375-7.722656.792968-27.109376-11.09375-86.714844-28.851562-192.792969-32.121094h-.066407l-1.886718-.042968c-4.488282-.125-9.003906-.246094-13.652344-.324219-2.484375 0-5.121094-.050781-7.621094-.074219-3.746094 0-7.375-.113281-11.222656-.113281s-7.679688.078125-11.46875.121094c-1.707031 0-3.371094 0-5.121094.058593-5.757812.085938-11.375.230469-16.894531.410157h-.929687c-103.117188 3.414062-164.488282 21.625-193.082032 32.9375-2.460937 1.007812-5.265625.6875-7.433594-.851563-2.53125-1.730468-4.019531-4.617187-3.96875-7.679687v-217.609375c-.074218-3.472656 1.84375-6.683594 4.941407-8.261719 24.027343-11.441406 94.976562-38.074219 233.949219-38.074219 144.597656 0 211.8125 26.308594 234.007812 37.613282 3.074219 1.601562 4.980469 4.800781 4.925781 8.261718zm0 0"/><path d="m66.226562 233.644531c-9.019531 2.257813-17.792968 4.699219-26.070312 7.277344-4.5 1.398437-7.015625 6.183594-5.617188 10.683594 1.402344 4.5 6.183594 7.015625 10.683594 5.613281 7.972656-2.480469 16.429688-4.835938 25.132813-7.011719 4.574219-1.140625 7.355469-5.773437 6.214843-10.347656-1.140624-4.574219-5.769531-7.355469-10.34375-6.214844zm0 0"/><path d="m118.160156 223.214844c-5.964844.9375-11.726562 1.921875-17.289062 2.953125-4.332032.808593-7.335938 4.78125-6.933594 9.167969.40625 4.386718 4.082031 7.746093 8.484375 7.753906.523437 0 1.046875-.046875 1.5625-.136719 5.410156-1 11.027344-1.964844 16.84375-2.886719 3.070313-.410156 5.671875-2.453125 6.800781-5.332031 1.132813-2.882813.617188-6.148437-1.347656-8.539063-1.964844-2.390624-5.070312-3.53125-8.113281-2.980468zm0 0"/><path d="m66.226562 197.90625c-9.019531 2.261719-17.792968 4.699219-26.070312 7.277344-4.5 1.398437-7.015625 6.183594-5.617188 10.683594 1.402344 4.5 6.183594 7.015624 10.683594 5.617187 7.972656-2.484375 16.429688-4.839844 25.132813-7.015625 4.574219-1.140625 7.355469-5.773438 6.214843-10.347656-1.140624-4.574219-5.769531-7.355469-10.34375-6.214844zm0 0"/><path d="m118.160156 187.476562c-5.964844.9375-11.726562 1.921876-17.289062 2.953126-4.351563.789062-7.382813 4.773437-6.976563 9.175781.402344 4.40625 4.105469 7.773437 8.527344 7.753906.523437 0 1.046875-.042969 1.5625-.136719 5.410156-.996094 11.027344-1.957031 16.84375-2.882812 3.070313-.414063 5.671875-2.457032 6.800781-5.335938 1.132813-2.878906.617188-6.148437-1.347656-8.539062s-5.070312-3.53125-8.113281-2.980469zm0 0"/><path d="m471.917969 240.921875c-8.277344-2.558594-17.066407-5.019531-26.070313-7.277344-4.574218-1.140625-9.207031 1.640625-10.347656 6.214844s1.644531 9.207031 6.21875 10.347656c8.703125 2.175781 17.160156 4.53125 25.128906 7.011719 4.5 1.402344 9.285156-1.113281 10.683594-5.613281s-1.113281-9.285157-5.613281-10.683594zm0 0"/><path d="m411.175781 226.132812c-5.558593-1.023437-11.320312-2.007812-17.289062-2.953124-3.042969-.550782-6.148438.589843-8.113281 2.980468-1.964844 2.390625-2.480469 5.65625-1.347657 8.539063 1.128907 2.878906 3.734375 4.921875 6.800781 5.335937 5.820313.921875 11.433594 1.882813 16.84375 2.882813.515626.089843 1.039063.136719 1.5625.136719 4.402344-.011719 8.074219-3.371094 8.476563-7.757813.398437-4.386719-2.605469-8.355469-6.933594-9.164063zm0 0"/><path d="m152.632812 39.75c-11.902343 1.390625-23.535156 3.054688-34.578124 4.9375-4.375.742188-7.453126 4.710938-7.078126 9.132812.375 4.425782 4.074219 7.820313 8.511719 7.816407.484375 0 .96875-.042969 1.445313-.128907 10.757812-1.835937 22.089844-3.457031 33.6875-4.8125 3.082031-.289062 5.761718-2.226562 7.007812-5.058593 1.25-2.832031.863282-6.113281-1-8.582031-1.867187-2.46875-4.921875-3.734376-7.988281-3.304688zm0 0"/><path d="m83.359375 51.773438c-14.863281 3.476562-29.480469 7.929687-43.757813 13.335937-3.28125 1.273437-5.445312 4.433594-5.445312 7.953125v29.335938c0 4.714843 3.820312 8.535156 8.535156 8.535156 4.710938 0 8.53125-3.820313 8.53125-8.535156v-23.414063c11.847656-4.175781 23.910156-7.722656 36.132813-10.625 3.019531-.65625 5.449219-2.898437 6.34375-5.859375.898437-2.957031.125-6.171875-2.019531-8.398438-2.148438-2.226562-5.328126-3.117187-8.320313-2.328124zm0 0"/><path d="m179.222656 384c0 4.710938-3.820312 8.535156-8.53125 8.535156-4.714844 0-8.535156-3.824218-8.535156-8.535156s3.820312-8.535156 8.535156-8.535156c4.710938 0 8.53125 3.824218 8.53125 8.535156zm0 0"/><path d="m349.890625 384c0 4.710938-3.820313 8.535156-8.535156 8.535156-4.710938 0-8.53125-3.824218-8.53125-8.535156s3.820312-8.535156 8.53125-8.535156c4.714843 0 8.535156 3.824218 8.535156 8.535156zm0 0"/><path d="m264.558594 136.535156c0 4.710938-3.824219 8.53125-8.535156 8.53125-4.710938 0-8.535157-3.820312-8.535157-8.53125 0-4.714844 3.824219-8.535156 8.535157-8.535156 4.710937 0 8.535156 3.820312 8.535156 8.535156zm0 0"/><path d="m332.824219 128h-9.121094c-3.941406-30.886719-28.257813-55.207031-59.144531-59.144531v-9.121094c0-4.714844-3.824219-8.535156-8.535156-8.535156-4.710938 0-8.535157 3.820312-8.535157 8.535156v9.121094c-30.886719 3.9375-55.203125 28.257812-59.144531 59.144531h-9.121094c-4.710937 0-8.53125 3.820312-8.53125 8.535156 0 4.710938 3.820313 8.53125 8.53125 8.53125h9.121094c3.941406 30.886719 28.257812 55.207032 59.144531 59.144532v9.121093c0 4.714844 3.824219 8.535157 8.535157 8.535157 4.710937 0 8.535156-3.820313 8.535156-8.535157v-9.121093c30.886718-3.9375 55.203125-28.257813 59.144531-59.144532h9.121094c4.710937 0 8.53125-3.820312 8.53125-8.53125 0-4.714844-3.820313-8.535156-8.53125-8.535156zm-68.265625 58.964844v-7.765625c0-4.710938-3.824219-8.53125-8.535156-8.53125-4.710938 0-8.535157 3.820312-8.535157 8.53125v7.765625c-21.4375-3.664063-38.234375-20.457032-41.898437-41.898438h7.765625c4.714843 0 8.535156-3.820312 8.535156-8.53125 0-4.714844-3.820313-8.535156-8.535156-8.535156h-7.765625c3.664062-21.441406 20.460937-38.234375 41.898437-41.898438v7.765626c0 4.710937 3.824219 8.53125 8.535157 8.53125 4.710937 0 8.535156-3.820313 8.535156-8.53125v-7.765626c21.4375 3.664063 38.234375 20.457032 41.898437 41.898438h-7.765625c-4.714844 0-8.535156 3.820312-8.535156 8.535156 0 4.710938 3.820312 8.53125 8.535156 8.53125h7.765625c-3.664062 21.441406-20.460937 38.234375-41.898437 41.898438zm0 0"/></svg>