<svg id="Capa_1" enable-background="new 0 0 512 512" height="512" viewBox="0 0 512 512" width="512" xmlns="http://www.w3.org/2000/svg"><g><path d="m511.552 312.612-60.25-241c-1.343-5.374-5.539-9.57-10.914-10.914l-241-60.25c-5.112-1.278-10.519.22-14.245 3.946l-180.749 180.75c-3.726 3.726-5.224 9.133-3.946 14.245l60.25 241c1.344 5.374 5.54 9.57 10.914 10.914l241 60.25c1.205.301 2.426.448 3.638.448 3.929 0 7.759-1.546 10.607-4.394l180.75-180.75c3.725-3.726 5.223-9.133 3.945-14.245zm-230.028 47.276-86.559-21.64 65.637-65.636 86.559 21.64zm-159.537-249.912 65.636-65.636 21.64 86.559-65.636 65.636zm146.382 133.655-21.879-87.515 87.516 21.879 21.879 87.515zm57.391-98.621-87.516-21.879-21.879-87.515 87.515 21.879zm-173.648 85.466 65.636-65.636 21.64 86.559-65.636 65.636zm18.114 132.511 86.559 21.639-65.636 65.637-86.559-21.64zm210.875-60.25 86.559 21.64-65.636 65.636-86.559-21.639zm7.768-28.981-21.879-87.515 87.515 21.879 21.879 87.515zm57.391-98.621-87.515-21.879-21.879-87.515 87.516 21.879zm-349.011-40.42 21.64 86.559-65.637 65.637-21.64-86.559zm-35.512 186.136 65.636-65.636 21.64 86.559-65.636 65.636zm249.912 159.537-86.559-21.64 65.636-65.636 86.559 21.64z"/></g></svg>